<svg width="12" height="12" viewBox="0 0 12 12" fill="none" xmlns="http://www.w3.org/2000/svg">
<path fill-rule="evenodd" clip-rule="evenodd" d="M5.99997 2.70497L3.85497 4.85497C3.76082 4.94912 3.63312 5.00202 3.49997 5.00202C3.36682 5.00202 3.23912 4.94912 3.14497 4.85497C3.05082 4.76082 2.99792 4.63312 2.99792 4.49997C2.99792 4.36682 3.05082 4.23912 3.14497 4.14497L5.64497 1.64497C5.69145 1.59811 5.74675 1.56091 5.80768 1.53552C5.86861 1.51014 5.93396 1.49707 5.99997 1.49707C6.06598 1.49707 6.13133 1.51014 6.19226 1.53552C6.25319 1.56091 6.30849 1.59811 6.35497 1.64497L8.85497 4.14497C8.90183 4.19145 8.93903 4.24675 8.96442 4.30768C8.9898 4.36861 9.00287 4.43396 9.00287 4.49997C9.00287 4.56598 8.9898 4.63133 8.96442 4.69226C8.93903 4.75319 8.90183 4.80849 8.85497 4.85497C8.80849 4.90183 8.75319 4.93903 8.69226 4.96442C8.63133 4.9898 8.56598 5.00287 8.49997 5.00287C8.43396 5.00287 8.36861 4.9898 8.30768 4.96442C8.24675 4.93903 8.19145 4.90183 8.14497 4.85497L5.99997 2.70497Z" fill="#AFAFAF"/>
<path fill-rule="evenodd" clip-rule="evenodd" d="M6.00088 9.29503L8.14588 7.14503C8.24004 7.05088 8.36773 6.99798 8.50088 6.99798C8.63403 6.99798 8.76173 7.05088 8.85588 7.14503C8.95004 7.23918 9.00293 7.36688 9.00293 7.50003C9.00293 7.63318 8.95004 7.76088 8.85588 7.85503L6.35588 10.355C6.3094 10.4019 6.2541 10.4391 6.19317 10.4645C6.13224 10.4899 6.06689 10.5029 6.00088 10.5029C5.93488 10.5029 5.86952 10.4899 5.8086 10.4645C5.74767 10.4391 5.69237 10.4019 5.64588 10.355L3.14588 7.85503C3.09902 7.80855 3.06182 7.75325 3.03644 7.69232C3.01105 7.63139 2.99798 7.56604 2.99798 7.50003C2.99798 7.43402 3.01105 7.36867 3.03644 7.30774C3.06182 7.24681 3.09902 7.19151 3.14588 7.14503C3.19237 7.09817 3.24767 7.06097 3.3086 7.03558C3.36953 7.0102 3.43488 6.99713 3.50088 6.99713C3.56689 6.99713 3.63224 7.0102 3.69317 7.03558C3.7541 7.06097 3.8094 7.09817 3.85588 7.14503L6.00088 9.29503Z" fill="#1D1D1D"/>
</svg>
